<svg width="11" height="18" viewBox="0 0 11 18" fill="none" xmlns="http://www.w3.org/2000/svg">
<path d="M9.79573 15.7041C10.0071 15.9154 10.1258 16.2021 10.1258 16.501C10.1258 16.7999 10.0071 17.0865 9.79573 17.2978C9.58439 17.5092 9.29774 17.6279 8.99886 17.6279C8.69997 17.6279 8.41333 17.5092 8.20198 17.2978L0.70198 9.79785C0.5971 9.69333 0.513884 9.56914 0.457103 9.43239C0.400322 9.29565 0.371094 9.14904 0.371094 9.00097C0.371094 8.85291 0.400322 8.7063 0.457103 8.56955C0.513884 8.43281 0.5971 8.30862 0.70198 8.2041L8.20198 0.7041C8.41333 0.492755 8.69997 0.374023 8.99886 0.374023C9.29774 0.374023 9.58439 0.492756 9.79573 0.7041C10.0071 0.915444 10.1258 1.20209 10.1258 1.50097C10.1258 1.79986 10.0071 2.08651 9.79573 2.29785L3.09354 9.00004L9.79573 15.7041Z" fill="#212328"/>
</svg>
