<svg width="44" height="44" viewBox="0 0 44 44" fill="none" xmlns="http://www.w3.org/2000/svg">
<circle cx="22" cy="22" r="22" fill="#0064D8"/>
<path d="M22 16.6875C21.3201 16.6875 20.6555 16.8891 20.0902 17.2668C19.5249 17.6445 19.0843 18.1814 18.8242 18.8095C18.564 19.4376 18.4959 20.1288 18.6286 20.7956C18.7612 21.4624 19.0886 22.0749 19.5693 22.5557C20.0501 23.0364 20.6626 23.3638 21.3294 23.4964C21.9962 23.6291 22.6874 23.561 23.3155 23.3008C23.9436 23.0407 24.4805 22.6001 24.8582 22.0348C25.2359 21.4695 25.4375 20.8049 25.4375 20.125C25.4365 19.2136 25.074 18.3399 24.4295 17.6955C23.7851 17.051 22.9114 16.6885 22 16.6875ZM22 21.6875C21.691 21.6875 21.3889 21.5959 21.1319 21.4242C20.875 21.2525 20.6747 21.0085 20.5564 20.7229C20.4382 20.4374 20.4072 20.1233 20.4675 19.8202C20.5278 19.5171 20.6766 19.2387 20.8951 19.0201C21.1137 18.8016 21.3921 18.6528 21.6952 18.5925C21.9983 18.5322 22.3124 18.5632 22.5979 18.6814C22.8835 18.7997 23.1275 19 23.2992 19.2569C23.4709 19.5139 23.5625 19.816 23.5625 20.125C23.5625 20.5394 23.3979 20.9368 23.1049 21.2299C22.8118 21.5229 22.4144 21.6875 22 21.6875ZM22 12.9375C20.0944 12.9396 18.2674 13.6975 16.92 15.045C15.5725 16.3924 14.8146 18.2194 14.8125 20.125C14.8125 26.1687 21.1906 30.7031 21.4625 30.893C21.6201 31.0032 21.8077 31.0624 22 31.0624C22.1923 31.0624 22.3799 31.0032 22.5375 30.893C23.7455 30.0027 24.8508 28.9808 25.8328 27.8461C28.0273 25.3258 29.1875 22.6539 29.1875 20.125C29.1854 18.2194 28.4275 16.3924 27.08 15.045C25.7326 13.6975 23.9056 12.9396 22 12.9375ZM24.4453 26.5867C23.7004 27.4424 22.8822 28.2313 22 28.9445C21.1178 28.2313 20.2996 27.4424 19.5547 26.5867C18.25 25.0758 16.6875 22.7273 16.6875 20.125C16.6875 18.716 17.2472 17.3648 18.2435 16.3685C19.2398 15.3722 20.591 14.8125 22 14.8125C23.409 14.8125 24.7602 15.3722 25.7565 16.3685C26.7528 17.3648 27.3125 18.716 27.3125 20.125C27.3125 22.7273 25.75 25.0758 24.4453 26.5867Z" fill="white"/>
</svg>
