<svg width="25" height="24" viewBox="0 0 25 24" fill="none" xmlns="http://www.w3.org/2000/svg">
<g id="Icons / Icon">
<path id="Vector" d="M18.33 12.74C18.05 12.17 17.26 11.69 16.21 12.5C14.7801 13.64 12.5001 13.64 12.5001 13.64C12.5001 13.64 10.2201 13.64 8.79005 12.5C7.74005 11.69 6.95005 12.17 6.67005 12.74C6.17005 13.74 6.73005 14.23 8.00005 15.04C9.09005 15.74 10.5801 16 11.5401 16.1L10.7401 16.9C9.60005 18.03 8.50005 19.12 7.75005 19.88C7.30005 20.34 7.30005 21.07 7.75005 21.5L7.89005 21.66C8.34005 22.11 9.08005 22.11 9.53005 21.66L12.5001 18.68C13.6501 19.81 14.7401 20.9 15.5 21.66C15.9501 22.11 16.68 22.11 17.14 21.66L17.2701 21.5C17.7301 21.07 17.7301 20.34 17.2701 19.88L14.2901 16.9L13.5001 16.09C14.4501 16 15.92 15.73 17 15.04C18.2701 14.23 18.83 13.74 18.33 12.74ZM12.5001 4.57C13.8801 4.57 15 5.69 15 7.06C15 8.44 13.8801 9.55 12.5001 9.55C11.1201 9.55 10.0001 8.44 10.0001 7.06C10.0001 5.69 11.1201 4.57 12.5001 4.57ZM12.5001 12.12C15.3001 12.12 17.56 9.86 17.56 7.06C17.56 5.718 17.0269 4.43097 16.078 3.48204C15.1291 2.53311 13.842 2 12.5001 2C11.1581 2 9.87102 2.53311 8.92209 3.48204C7.97316 4.43097 7.44005 5.718 7.44005 7.06C7.44005 9.86 9.70005 12.12 12.5001 12.12Z" fill="#F98D2A"/>
</g>
</svg>
