<svg width="25" height="24" viewBox="0 0 25 24" fill="none" xmlns="http://www.w3.org/2000/svg">
<g id="Icons / Icon">
<path id="Vector" d="M22.003 18.381H19.722C18.859 18.381 18.599 17.682 17.052 16.134C15.7 14.831 15.129 14.669 14.787 14.669C14.314 14.669 14.185 14.799 14.185 15.45V17.502C14.185 18.057 14.005 18.382 12.555 18.382C11.1483 18.2875 9.78416 17.8602 8.57497 17.1352C7.36578 16.4102 6.34612 15.4083 5.6 14.212C3.82839 12.0071 2.59571 9.41911 2 6.65403C2 6.31203 2.13 6.00203 2.782 6.00203H5.062C5.648 6.00203 5.859 6.26303 6.089 6.86603C7.196 10.124 9.085 12.958 9.852 12.958C10.146 12.958 10.274 12.828 10.274 12.095V8.73903C10.177 7.20803 9.364 7.07903 9.364 6.52503C9.37428 6.37887 9.44114 6.24248 9.55037 6.14482C9.65961 6.04717 9.80261 5.99594 9.949 6.00203H13.533C14.023 6.00203 14.185 6.24603 14.185 6.83203V11.362C14.185 11.851 14.395 12.013 14.543 12.013C14.837 12.013 15.063 11.851 15.602 11.313C16.7574 9.90401 17.7013 8.3342 18.404 6.65303C18.4759 6.45118 18.6119 6.2784 18.7912 6.16105C18.9705 6.04369 19.1832 5.98819 19.397 6.00303H21.678C22.362 6.00303 22.507 6.34503 22.362 6.83303C21.5324 8.69144 20.5058 10.4555 19.3 12.095C19.054 12.47 18.956 12.665 19.3 13.105C19.526 13.447 20.326 14.115 20.863 14.75C21.645 15.53 22.294 16.432 22.785 17.42C22.981 18.056 22.654 18.381 22.003 18.381Z" fill="#0077FF"/>
</g>
</svg>
