<svg width="25" height="24" viewBox="0 0 25 24" fill="none" xmlns="http://www.w3.org/2000/svg">
<g id="Icons / Icon">
<path id="Vector" d="M12.501 2C18.024 2 22.501 6.477 22.501 12C22.501 17.523 18.024 22 12.501 22C10.7338 22.0029 8.99765 21.5352 7.47099 20.645L2.50499 22L3.85699 17.032C2.96608 15.5049 2.49804 13.768 2.50099 12C2.50099 6.477 6.97799 2 12.501 2ZM9.09299 7.3L8.89299 7.308C8.76351 7.31589 8.63697 7.3499 8.52099 7.408C8.41251 7.46943 8.31349 7.54622 8.22699 7.636C8.10699 7.749 8.03899 7.847 7.96599 7.942C7.59611 8.4229 7.39696 9.01331 7.39999 9.62C7.40199 10.11 7.52999 10.587 7.72999 11.033C8.13899 11.935 8.81199 12.89 9.69999 13.775C9.91399 13.988 10.124 14.202 10.35 14.401C11.4534 15.3725 12.7682 16.073 14.19 16.447L14.758 16.534C14.943 16.544 15.128 16.53 15.314 16.521C15.6052 16.506 15.8896 16.4271 16.147 16.29C16.2779 16.2225 16.4057 16.1491 16.53 16.07C16.53 16.07 16.573 16.042 16.655 15.98C16.79 15.88 16.873 15.809 16.985 15.692C17.068 15.606 17.14 15.505 17.195 15.39C17.273 15.227 17.351 14.916 17.383 14.657C17.407 14.459 17.4 14.351 17.397 14.284C17.393 14.177 17.304 14.066 17.207 14.019L16.625 13.758C16.625 13.758 15.755 13.379 15.223 13.137C15.1673 13.1127 15.1077 13.0988 15.047 13.096C14.9786 13.089 14.9094 13.0967 14.8442 13.1186C14.779 13.1405 14.7193 13.1761 14.669 13.223C14.664 13.221 14.597 13.278 13.874 14.154C13.8325 14.2098 13.7753 14.2519 13.7098 14.2751C13.6443 14.2982 13.5733 14.3013 13.506 14.284C13.4408 14.2665 13.377 14.2445 13.315 14.218C13.191 14.166 13.148 14.146 13.063 14.11C12.4891 13.8595 11.9577 13.5211 11.488 13.107C11.362 12.997 11.245 12.877 11.125 12.761C10.7316 12.3842 10.3887 11.958 10.105 11.493L10.046 11.398C10.0036 11.3342 9.96935 11.2653 9.94399 11.193C9.90599 11.046 10.005 10.928 10.005 10.928C10.005 10.928 10.248 10.662 10.361 10.518C10.471 10.378 10.564 10.242 10.624 10.145C10.742 9.955 10.779 9.76 10.717 9.609C10.437 8.925 10.147 8.244 9.84899 7.568C9.78999 7.434 9.61499 7.338 9.45599 7.319C9.40199 7.313 9.34799 7.307 9.29399 7.303C9.1597 7.29633 9.02513 7.29766 8.89099 7.307L9.09199 7.299L9.09299 7.3Z" fill="#25D366"/>
</g>
</svg>
